<svg width="32" height="32" viewBox="0 0 32 32" fill="none" xmlns="http://www.w3.org/2000/svg"><circle cx="16" cy="16" r="16" fill="white" fill-opacity="0.5"/><g clip-path="url(#clip0_1164_157117)"><path d="M28.42 21.45C27.67 23.15 26.58 24.65 25.25 25.9L26.18 26.94C27.68 25.54 28.9 23.85 29.73 21.94L28.43 21.45H28.42Z" fill="#876C43"/><path d="M29.57 15.97C29.57 17.57 29.28 19.09 28.77 20.52L30.07 21.01C30.63 19.43 30.96 17.74 30.96 15.97C30.96 15.61 30.93 15.25 30.91 14.89L29.53 15.06C29.55 15.36 29.58 15.66 29.58 15.97H29.57Z" fill="#876C43"/><path d="M28.68 8.05005L27.53 8.84005C28.5 10.4 29.15 12.17 29.42 14.07L30.8 13.9C30.51 11.77 29.77 9.79005 28.68 8.05005Z" fill="#876C43"/><path d="M22.82 4.24C24.45 5.19 25.87 6.48 26.97 8L28.12 7.21C26.89 5.5 25.3 4.06 23.47 3L22.82 4.24Z" fill="#876C43"/><path d="M16.48 1V2.41C18.43 2.48 20.28 2.96 21.94 3.78L22.59 2.54C20.74 1.61 18.67 1.07 16.48 1Z" fill="#876C43"/></g><path d="M15.0514 20.14C13.7354 20.14 13.0214 19.804 12.6994 19.608V18.278C13.1054 18.614 13.9034 18.964 14.9114 18.964C16.2694 18.964 17.0394 18.32 17.0394 17.116C17.0394 15.94 16.2694 15.352 15.1214 15.352C14.2254 15.352 13.5254 15.786 13.1474 16.192L13.0074 16.15L13.7214 10.928H17.8654V12.048H14.7994L14.4774 14.512C14.7574 14.344 15.1494 14.232 15.6814 14.232C17.2074 14.232 18.3834 15.142 18.3834 17.06C18.3834 19.146 17.1374 20.14 15.0514 20.14Z" fill="#876C43"/><defs><clipPath id="clip0_1164_157117"><rect width="29.96" height="29.97" fill="white" transform="translate(1 1)"/></clipPath></defs></svg>