<svg width="33" height="32" viewBox="0 0 33 32" fill="none" xmlns="http://www.w3.org/2000/svg"><circle cx="17" cy="16" r="16" fill="white" fill-opacity="0.5"/><g clip-path="url(#clip0_1269_1829)"><path d="M6.4344 24.5044C5.13127 22.8899 4.1844 20.9844 3.7344 18.8911L2.33752 19.0882C2.8344 21.4631 3.90315 23.6126 5.37502 25.4337L6.44377 24.5044H6.4344Z" fill="#876C43"/><path d="M6.3031 26.485C7.93435 28.1464 9.93122 29.4324 12.1812 30.1927L12.5844 28.8316C10.5969 28.1464 8.8156 27.02 7.37185 25.5557L6.3031 26.485Z" fill="#876C43"/><path d="M20.0656 29.226C19.0813 29.4606 18.0594 29.592 17 29.592C15.9406 29.592 14.9188 29.4512 13.9344 29.226L13.5406 30.5776C14.6563 30.8405 15.8094 31 17 31C18.1906 31 19.3531 30.8405 20.4594 30.5776L20.0656 29.226Z" fill="#876C43"/><path d="M26.6281 25.5557C25.175 27.02 23.4031 28.1464 21.4156 28.8316L21.8188 30.1927C24.0688 29.4324 26.075 28.1464 27.6969 26.485L26.6281 25.5557Z" fill="#876C43"/><path d="M30.275 18.8911C29.8156 20.9844 28.8688 22.8899 27.575 24.5044L28.6438 25.4337C30.1156 23.622 31.175 21.4631 31.6813 19.0882L30.2844 18.8911H30.275Z" fill="#876C43"/><path d="M31.0062 10.6401L29.7219 11.2221C30.275 12.7052 30.5937 14.3009 30.5937 15.9718C30.5937 16.4881 30.5469 16.9949 30.4906 17.4924L31.8781 17.6896C31.9437 17.1264 32 16.5538 32 15.9718C32 14.0851 31.6344 12.2922 31.0062 10.6307V10.6401Z" fill="#876C43"/><path d="M25.0437 5.03634C26.7781 6.31294 28.1844 7.99316 29.15 9.93622L30.4344 9.34485C29.3562 7.15774 27.7625 5.26162 25.8031 3.83484L25.0344 5.02695L25.0437 5.03634Z" fill="#876C43"/><path d="M17.7031 2.40801C19.9531 2.52065 22.0437 3.17772 23.8719 4.2572L24.6312 3.07447C22.5875 1.85419 20.225 1.11264 17.7031 1V2.40801Z" fill="#876C43"/></g><path d="M16.5056 20.14C14.6296 20.14 13.5236 19.048 13.5236 17.48C13.5236 16.374 14.0836 15.548 14.8676 15.254C14.2936 15.016 13.7476 14.386 13.7476 13.308C13.7476 11.768 14.8676 10.788 16.4916 10.788C18.0876 10.788 19.2496 11.74 19.2496 13.308C19.2496 14.372 18.6896 14.988 18.1016 15.226C18.8856 15.492 19.4736 16.22 19.4736 17.48C19.4736 19.02 18.3816 20.14 16.5056 20.14ZM16.4916 14.75C17.3316 14.75 17.9196 14.218 17.9196 13.35C17.9196 12.51 17.3456 11.936 16.4916 11.936C15.6656 11.936 15.0636 12.538 15.0636 13.35C15.0636 14.218 15.6376 14.75 16.4916 14.75ZM16.5056 18.964C17.4856 18.964 18.1436 18.334 18.1436 17.41C18.1436 16.458 17.4856 15.856 16.5056 15.856C15.5396 15.856 14.8536 16.472 14.8536 17.41C14.8536 18.348 15.4836 18.964 16.5056 18.964Z" fill="#876C43"/><defs><clipPath id="clip0_1269_1829"><rect width="30" height="30" fill="white" transform="translate(2 1)"/></clipPath></defs></svg>