<svg width="32" height="32" viewBox="0 0 32 32" fill="none" xmlns="http://www.w3.org/2000/svg"><circle cx="16" cy="16" r="16" fill="white" fill-opacity="0.5"/><g clip-path="url(#clip0_1164_157117)"><path d="M1.15997 13.9L2.53997 14.07C2.80997 12.17 3.45997 10.4 4.42997 8.84005L3.27997 8.05005C2.18997 9.79005 1.44997 11.78 1.15997 13.9Z" fill="#876C43"/><path d="M2.39001 15.97C2.39001 15.66 2.42001 15.36 2.44001 15.06L1.06001 14.89C1.03001 15.25 1.01001 15.61 1.01001 15.97C1.01001 17.74 1.33001 19.43 1.90001 21.01L3.20001 20.52C2.69001 19.1 2.40001 17.57 2.40001 15.97H2.39001Z" fill="#876C43"/><path d="M3.53999 21.45L2.23999 21.94C3.06999 23.85 4.28999 25.54 5.78999 26.94L6.71999 25.9C5.37999 24.65 4.29999 23.14 3.54999 21.45H3.53999Z" fill="#876C43"/><path d="M12.3 29.0501C10.51 28.5501 8.87998 27.7001 7.46998 26.5701L6.53998 27.6201C8.10998 28.9001 9.95998 29.8601 11.96 30.4201L12.3 29.0601V29.0501Z" fill="#876C43"/><path d="M18.6899 29.3C17.8099 29.48 16.9099 29.57 15.9799 29.57C15.0499 29.57 14.1399 29.48 13.2699 29.3L12.9299 30.67C13.9099 30.87 14.9299 30.98 15.9799 30.98C17.0299 30.98 18.0399 30.87 19.0299 30.67L18.6899 29.3Z" fill="#876C43"/><path d="M25.4199 27.6101L24.4899 26.5601C23.0799 27.6901 21.4499 28.5401 19.6599 29.0501L19.9999 30.4101C22.0099 29.8501 23.8499 28.8901 25.4199 27.6101Z" fill="#876C43"/><path d="M28.42 21.45C27.67 23.15 26.58 24.65 25.25 25.9L26.18 26.94C27.68 25.54 28.9 23.85 29.73 21.94L28.43 21.45H28.42Z" fill="#876C43"/><path d="M29.57 15.97C29.57 17.57 29.28 19.09 28.77 20.52L30.07 21.01C30.63 19.43 30.96 17.74 30.96 15.97C30.96 15.61 30.93 15.25 30.91 14.89L29.53 15.06C29.55 15.36 29.58 15.66 29.58 15.97H29.57Z" fill="#876C43"/><path d="M28.68 8.05005L27.53 8.84005C28.5 10.4 29.15 12.17 29.42 14.07L30.8 13.9C30.51 11.77 29.77 9.79005 28.68 8.05005Z" fill="#876C43"/><path d="M22.8201 4.24C24.4501 5.19 25.8701 6.48 26.9701 8L28.1201 7.21C26.8901 5.5 25.3001 4.06 23.4701 3L22.8201 4.24Z" fill="#876C43"/><path d="M16.48 1V2.41C18.43 2.48 20.28 2.96 21.94 3.78L22.59 2.54C20.74 1.61 18.67 1.07 16.48 1Z" fill="#876C43"/></g><path d="M12.3882 20V12.426L10.3162 13.378V12.244L13.5502 10.788H13.6762V20H12.3882ZM18.5035 20V12.426L16.4315 13.378V12.244L19.6655 10.788H19.7915V20H18.5035Z" fill="#876C43"/><defs><clipPath id="clip0_1164_157117"><rect width="29.96" height="29.97" fill="white" transform="translate(1 1)"/></clipPath></defs></svg>