<svg width="32" height="32" viewBox="0 0 32 32" fill="none" xmlns="http://www.w3.org/2000/svg"><circle cx="16" cy="16" r="16" fill="white" fill-opacity="0.5"/><g clip-path="url(#clip0_1164_157117)"><path d="M22.82 4.24C24.45 5.19 25.87 6.48 26.97 8L28.12 7.21C26.89 5.5 25.3 4.06 23.47 3L22.82 4.24Z" fill="#876C43"/><path d="M16.48 1V2.41C18.43 2.48 20.28 2.96 21.94 3.78L22.59 2.54C20.74 1.61 18.67 1.07 16.48 1Z" fill="#876C43"/></g><path d="M12.4803 20V19.874L15.4483 16.206C16.3163 15.128 16.8063 14.386 16.8063 13.518C16.8063 12.594 16.2603 11.936 15.1263 11.936C14.0903 11.936 13.2923 12.51 12.9283 12.804V11.502C13.3203 11.194 14.0903 10.788 15.2663 10.788C17.1703 10.788 18.1363 11.852 18.1363 13.49C18.1363 14.568 17.7023 15.338 16.4983 16.808L14.7903 18.866H18.2903V20H12.4803Z" fill="#876C43"/><defs><clipPath id="clip0_1164_157117"><rect width="29.96" height="29.97" fill="white" transform="translate(1 1)"/></clipPath></defs></svg>