<svg width="32" height="32" viewBox="0 0 32 32" fill="none" xmlns="http://www.w3.org/2000/svg"><circle cx="16" cy="16" r="16" fill="white" fill-opacity="0.5"/><g clip-path="url(#clip0_1164_157117)"><path d="M3.53999 21.45L2.23999 21.94C3.06999 23.85 4.28999 25.54 5.78999 26.94L6.71999 25.9C5.37999 24.65 4.29999 23.14 3.54999 21.45H3.53999Z" fill="#876C43"/><path d="M12.3 29.0501C10.51 28.5501 8.87998 27.7001 7.46998 26.5701L6.53998 27.6201C8.10998 28.9001 9.95998 29.8601 11.96 30.4201L12.3 29.0601V29.0501Z" fill="#876C43"/><path d="M18.69 29.3C17.81 29.48 16.91 29.57 15.98 29.57C15.05 29.57 14.14 29.48 13.27 29.3L12.93 30.67C13.91 30.87 14.93 30.98 15.98 30.98C17.03 30.98 18.04 30.87 19.03 30.67L18.69 29.3Z" fill="#876C43"/><path d="M25.42 27.6101L24.49 26.5601C23.08 27.6901 21.45 28.5401 19.66 29.0501L20 30.4101C22.01 29.8501 23.85 28.8901 25.42 27.6101Z" fill="#876C43"/><path d="M28.42 21.45C27.67 23.15 26.58 24.65 25.25 25.9L26.18 26.94C27.68 25.54 28.9 23.85 29.73 21.94L28.43 21.45H28.42Z" fill="#876C43"/><path d="M29.57 15.97C29.57 17.57 29.28 19.09 28.77 20.52L30.07 21.01C30.63 19.43 30.96 17.74 30.96 15.97C30.96 15.61 30.93 15.25 30.91 14.89L29.53 15.06C29.55 15.36 29.58 15.66 29.58 15.97H29.57Z" fill="#876C43"/><path d="M28.68 8.05005L27.53 8.84005C28.5 10.4 29.15 12.17 29.42 14.07L30.8 13.9C30.51 11.77 29.77 9.79005 28.68 8.05005Z" fill="#876C43"/><path d="M22.82 4.24C24.45 5.19 25.87 6.48 26.97 8L28.12 7.21C26.89 5.5 25.3 4.06 23.47 3L22.82 4.24Z" fill="#876C43"/><path d="M16.48 1V2.41C18.43 2.48 20.28 2.96 21.94 3.78L22.59 2.54C20.74 1.61 18.67 1.07 16.48 1Z" fill="#876C43"/></g><path d="M15.4412 10.788C17.4572 10.788 18.6612 11.978 18.6612 14.26C18.6612 16.43 17.4852 18.544 15.4552 20H13.5792C15.1192 18.88 16.6452 17.452 17.1632 15.94C16.8692 16.318 16.2672 16.752 15.2452 16.752C13.4392 16.752 12.2772 15.562 12.2772 13.868C12.2772 12.146 13.3972 10.788 15.4412 10.788ZM15.4412 15.618C16.5472 15.618 17.2892 14.904 17.2892 13.77C17.2892 12.65 16.5332 11.922 15.4552 11.922C14.3632 11.922 13.6072 12.622 13.6072 13.798C13.6072 14.96 14.3912 15.618 15.4412 15.618Z" fill="#876C43"/><defs><clipPath id="clip0_1164_157117"><rect width="29.96" height="29.97" fill="white" transform="translate(1 1)"/></clipPath></defs></svg>