<svg width="32" height="32" viewBox="0 0 32 32" fill="none" xmlns="http://www.w3.org/2000/svg"><circle cx="16" cy="16" r="16" fill="white" fill-opacity="0.5"/><g clip-path="url(#clip0_1164_157117)"><path d="M25.42 27.6101L24.49 26.5601C23.08 27.6901 21.45 28.5401 19.66 29.0501L20 30.4101C22.01 29.8501 23.85 28.8901 25.42 27.6101Z" fill="#876C43"/><path d="M28.42 21.45C27.67 23.15 26.58 24.65 25.25 25.9L26.18 26.94C27.68 25.54 28.9 23.85 29.73 21.94L28.43 21.45H28.42Z" fill="#876C43"/><path d="M29.57 15.97C29.57 17.57 29.28 19.09 28.77 20.52L30.07 21.01C30.63 19.43 30.96 17.74 30.96 15.97C30.96 15.61 30.93 15.25 30.91 14.89L29.53 15.06C29.55 15.36 29.58 15.66 29.58 15.97H29.57Z" fill="#876C43"/><path d="M28.68 8.05005L27.53 8.84005C28.5 10.4 29.15 12.17 29.42 14.07L30.8 13.9C30.51 11.77 29.77 9.79005 28.68 8.05005Z" fill="#876C43"/><path d="M22.82 4.24C24.45 5.19 25.87 6.48 26.97 8L28.12 7.21C26.89 5.5 25.3 4.06 23.47 3L22.82 4.24Z" fill="#876C43"/><path d="M16.48 1V2.41C18.43 2.48 20.28 2.96 21.94 3.78L22.59 2.54C20.74 1.61 18.67 1.07 16.48 1Z" fill="#876C43"/></g><path d="M15.8686 14.078C17.3946 14.078 18.7386 15.016 18.7386 17.004C18.7386 18.782 17.5906 20.14 15.5466 20.14C13.5726 20.14 12.3266 18.894 12.3266 16.682C12.3266 14.428 13.6986 12.062 15.5746 10.928H17.5626C16.1626 11.712 14.5106 13.308 13.9926 14.834C14.3706 14.386 15.0146 14.078 15.8686 14.078ZM15.5466 18.992C16.6806 18.992 17.4226 18.222 17.4226 17.088C17.4226 15.94 16.6386 15.198 15.5466 15.198C14.4826 15.198 13.6706 15.968 13.6706 17.088C13.6706 18.194 14.4266 18.992 15.5466 18.992Z" fill="#876C43"/><defs><clipPath id="clip0_1164_157117"><rect width="29.96" height="29.97" fill="white" transform="translate(1 1)"/></clipPath></defs></svg>